<svg width="18" height="18" viewBox="0 0 18 18" fill="none" xmlns="http://www.w3.org/2000/svg">
<g id="ant-design:star-filled">
<path id="Vector" d="M15.9626 6.20682L11.4995 5.55819L9.50436 1.51346C9.44987 1.40272 9.36022 1.31307 9.24948 1.25858C8.97174 1.12147 8.63424 1.23572 8.49537 1.51346L6.50026 5.55819L2.03717 6.20682C1.91412 6.2244 1.80162 6.2824 1.71549 6.37029C1.61136 6.47732 1.55398 6.62131 1.55596 6.77062C1.55794 6.91993 1.61911 7.06235 1.72604 7.16658L4.95514 10.3148L4.19225 14.7603C4.17436 14.8637 4.1858 14.9701 4.22528 15.0673C4.26476 15.1646 4.3307 15.2488 4.41561 15.3105C4.50053 15.3722 4.60102 15.4088 4.7057 15.4163C4.81039 15.4237 4.91507 15.4017 5.00787 15.3527L8.99987 13.2539L12.9919 15.3527C13.1008 15.4107 13.2274 15.4301 13.3487 15.409C13.6546 15.3562 13.8602 15.0662 13.8075 14.7603L13.0446 10.3148L16.2737 7.16658C16.3616 7.08045 16.4196 6.96795 16.4372 6.8449C16.4846 6.53729 16.2702 6.25252 15.9626 6.20682Z" fill="#50B2EA"/>
</g>
</svg>
