<svg width="56" height="56" viewBox="0 0 56 56" fill="none" xmlns="http://www.w3.org/2000/svg">
<g id="wrench 3" clip-path="url(#clip0_1_50595)">
<g id="Group">
<g id="Group_2">
<path id="Vector" d="M54.6022 9.2156C54.295 8.42456 53.6289 7.85072 52.8205 7.68054C51.9943 7.5061 51.131 7.77252 50.5116 8.39208L44.7352 14.1684L41.9146 11.3478L48.0582 5.20428C48.6977 4.5647 48.9722 3.67403 48.7929 2.82163C48.6175 1.98826 48.0255 1.30166 47.2096 0.984826C41.848 -1.09794 35.7561 0.184157 31.6897 4.2505C29.5486 6.39156 28.1507 9.09497 27.6458 12.0702C27.5378 12.5762 27.4333 13.1136 27.3227 13.682C26.6768 17.0021 25.8729 21.1342 23.516 23.4909L2.41306 44.594C-0.192699 47.1997 -0.192699 51.4399 2.41306 54.0457C3.71604 55.3486 5.42751 56 7.13898 56C8.85034 56 10.5619 55.3486 11.8648 54.0457L32.9676 32.9428C35.3246 30.5858 39.4565 29.7821 42.7767 29.1361C43.3451 29.0255 43.8825 28.921 44.3886 28.813C47.3638 28.3081 50.0672 26.9102 52.2083 24.7691C52.84 24.1373 53.0228 23.2798 52.7612 22.5174C55.6283 18.7195 56.3419 13.6948 54.6022 9.2156ZM52.0582 9.93862C52.1546 9.84238 52.2682 9.79929 52.37 9.82095C52.4574 9.83932 52.5224 9.90209 52.5634 10.0074C53.9616 13.6076 53.4783 17.6266 51.3308 20.764L46.2818 15.715L52.0582 9.93862ZM50.6615 23.2226C48.8384 25.0457 46.5355 26.2343 44.0019 26.6601C43.9859 26.6628 43.9702 26.6658 43.9543 26.6692C43.4613 26.7747 42.9258 26.8788 42.3589 26.9891C38.7464 27.6919 34.2504 28.5665 31.4208 31.3961L10.3181 52.499C8.56533 54.252 5.71296 54.2519 3.95982 52.4989C2.2069 50.7459 2.2069 47.8937 3.95982 46.1406L25.0628 25.0377C27.8924 22.2082 28.767 17.7123 29.4698 14.0997C29.5801 13.5327 29.6842 12.9973 29.7897 12.5042C29.7931 12.4884 29.7961 12.4726 29.7989 12.4566C30.2244 9.9232 31.4131 7.62028 33.2364 5.79704C35.5911 3.44228 38.7449 2.1872 41.9573 2.1872C43.4564 2.1872 44.9688 2.46072 46.4178 3.02352C46.5496 3.0747 46.6285 3.15826 46.6525 3.27189C46.6795 3.40017 46.6281 3.54071 46.5115 3.65718L39.5947 10.574C39.1676 11.0011 39.1676 11.6936 39.5947 12.1208L50.6675 23.1937C50.6715 23.1975 50.6749 23.2011 50.6778 23.2045C50.6735 23.2101 50.6682 23.2159 50.6615 23.2226Z" fill="white"/>
<path id="Vector_2" d="M38.0476 13.6679C37.8424 13.4628 37.5643 13.3475 37.2742 13.3475C36.9842 13.3475 36.706 13.4628 36.5009 13.6679L33.4077 16.7612C32.9806 17.1883 32.9806 17.8808 33.4077 18.3079L37.7749 22.6753C37.98 22.8803 38.2582 22.9956 38.5482 22.9956C38.8383 22.9956 39.1165 22.8803 39.3216 22.6753L42.4149 19.5819C42.8419 19.1549 42.8419 18.4624 42.4149 18.0352L38.0476 13.6679ZM38.5481 20.3551L35.7276 17.5345L37.2742 15.9878L40.0948 18.8084L38.5481 20.3551Z" fill="white"/>
<path id="Vector_3" d="M7.91204 48.5463C7.48486 48.1191 6.79268 48.1196 6.36561 48.5466C5.93853 48.9737 5.93875 49.6664 6.36583 50.0936C6.57942 50.3071 6.85929 50.4139 7.13915 50.4139C7.41902 50.4139 7.69889 50.3071 7.91248 50.0936C8.33956 49.6665 8.33956 48.974 7.91248 48.5468L7.91204 48.5463Z" fill="white"/>
<path id="Vector_4" d="M27.4689 27.444L9.84594 45.0668C9.41887 45.4938 9.41887 46.1863 9.84594 46.6135C10.0595 46.827 10.3394 46.9339 10.6193 46.9339C10.8991 46.9339 11.179 46.827 11.3926 46.6135L29.0155 28.9906C29.4426 28.5636 29.4426 27.8711 29.0155 27.4439C28.5883 27.0169 27.896 27.0169 27.4689 27.444Z" fill="white"/>
</g>
</g>
</g>
<defs>
<clipPath id="clip0_1_50595">
<rect width="56" height="56" fill="white"/>
</clipPath>
</defs>
</svg>
